# xmcd
#
# Track frame offsets:
#	150
#	14476
#	29077
#	45309
#	59576
#	76674
#	99047
#	118277
#	134568
#	153819
#	169528
#	184869
#
# Disc length: 2721 seconds
#
# Revision: 0
# Processed by: cddbd v1.5.2PL0 Copyright (c) Steve Scherf et al.
# Submitted via: audiograbber 1.83.01
#
DISCID=940a9f0c
DTITLE=Doug Adkins - Waltz Across Montana
DYEAR=2012
DGENRE=Country
TTITLE0=Ain't Gonna Play With Your Heart
TTITLE1=Loved You More
TTITLE2=Mary Jane Riley 
TTITLE3=Why Not
TTITLE4=Playin' To Win
TTITLE5=Bismarck North Dakota
TTITLE6=One Fine Mamma
TTITLE7=Ropin' The Wind
TTITLE8=Yippee Il Yippee aa
TTITLE9=Waltz Across Montana
TTITLE10=Nothin' Left
TTITLE11=To Sante Fe
EXTD=
EXTT0=
EXTT1=
EXTT2=
EXTT3=
EXTT4=
EXTT5=
EXTT6=
EXTT7=
EXTT8=
EXTT9=
EXTT10=
EXTT11=
PLAYORDER=
